<svg width="28" height="28" viewBox="0 0 28 28" fill="none" xmlns="http://www.w3.org/2000/svg">
<path d="M13.9987 3.84961C9.36721 3.84961 5.6001 7.61672 5.6001 12.2476C5.6001 14.491 6.47801 16.6059 8.05774 18.1854L10.4988 20.5784C12.443 22.4843 15.5546 22.4845 17.4989 20.5788L19.9387 18.1876C21.526 16.6022 22.3992 14.491 22.3992 12.2479C22.3988 7.61672 18.6295 3.84961 13.9987 3.84961Z" fill="#FFF8E1"/>
<path d="M12.0308 22.2251L8.05774 18.1854C6.47769 16.6059 5.6001 14.4913 5.6001 12.2473C5.6001 7.61704 9.36721 3.84961 13.9987 3.84961C14.2538 3.84961 14.5055 3.86284 14.7547 3.8852C10.4763 4.26919 7.11211 7.87187 7.11211 12.2473C7.11211 14.0881 7.70501 15.7034 9.07764 17.3031C10.4503 18.9029 12.7658 19.9855 14.9839 20.7485L12.0308 22.2251Z" fill="#FFECB3"/>
<path d="M13.9987 1.75C8.2096 1.75 3.5 6.45834 3.5 12.2474C3.5 15.0529 4.59085 17.6885 6.5886 19.6862L13.9987 26.9502L21.423 19.6717C23.4085 17.6888 24.4993 15.051 24.4993 12.2478C24.499 6.45834 19.7884 1.75 13.9987 1.75ZM19.9387 18.1874C16.6391 21.4214 11.357 21.4196 8.05777 18.1852C6.47772 16.6058 5.60012 14.4909 5.60012 12.2474C5.60012 7.61691 9.36723 3.84949 13.9987 3.84949C18.6299 3.84949 22.3989 7.6166 22.3989 12.2474C22.3989 14.4909 21.526 16.6017 19.9387 18.1874Z" fill="#FFC928"/>
<path d="M15.3117 7.78722C15.3117 8.51078 14.7233 9.09763 13.9994 9.09763C13.2749 9.09763 12.6868 8.51078 12.6868 7.78722C12.6868 7.06114 13.2749 6.47461 13.9994 6.47461C14.7233 6.47461 15.3117 7.06114 15.3117 7.78722Z" fill="#455A64"/>
<path d="M13.6948 7.78722C13.6948 7.24006 14.029 6.77292 14.5031 6.57572C14.3478 6.51083 14.1774 6.47461 13.9994 6.47461C13.2749 6.47461 12.6868 7.06114 12.6868 7.78722C12.6868 8.51078 13.2749 9.09763 13.9994 9.09763C14.1774 9.09763 14.3478 9.06109 14.5031 8.99683C14.029 8.79901 13.6948 8.33218 13.6948 7.78722Z" fill="#263238"/>
<path d="M16.6243 11.7254V10.1504H11.3745V11.7254H13.2119V15.9253H11.3745V17.5003H16.6243V15.9253H14.7869V11.7254H16.6243Z" fill="#455A64"/>
<path d="M13.2116 15.9248H12.2036V17.4998H13.2116V15.9248Z" fill="#263238"/>
</svg>
