<svg width="28" height="28" viewBox="0 0 28 28" fill="none" xmlns="http://www.w3.org/2000/svg">
<path d="M6.53323 10.2666H4.66675V22.4001C4.66675 22.9153 5.08395 23.3336 5.59971 23.3336C6.11603 23.3336 6.53323 22.9153 6.53323 22.4001V10.2666Z" fill="#F2F2F6"/>
<path d="M23.3332 4.66602H8.39966V23.3331H23.3332V4.66602Z" fill="#F2F2F6"/>
<path d="M6.53329 2.7998V8.39981H2.80005V22.3998C2.80005 23.9457 4.05417 25.1998 5.59977 25.1998H22.4001C23.9459 25.1998 25.2001 23.9457 25.2001 22.3998V2.7998H6.53329ZM6.53329 22.3998C6.53329 22.915 6.11609 23.3333 5.59977 23.3333C5.08401 23.3333 4.66681 22.915 4.66681 22.3998V10.2663H6.53329V22.3998ZM23.3333 23.3333H8.39977V4.66629H23.3333V23.3333Z" fill="#B6B6BF"/>
<path d="M19.6001 6.5332H10.2668V8.39968H19.6001V6.5332Z" fill="#EC407A"/>
<path d="M21.4666 10.2666H10.2668V12.1336H21.4666V10.2666Z" fill="#455A64"/>
<path d="M17.7333 14H10.2668V15.8668H17.7333V14Z" fill="#455A64"/>
<path d="M21.4666 17.7334H10.2668V19.5999H21.4666V17.7334Z" fill="#455A64"/>
<path d="M11.3868 6.5332H10.2668V8.39968H11.3868V6.5332Z" fill="#3C3C43" fill-opacity="0.25"/>
<path d="M11.3868 10.2666H10.2668V12.1336H11.3868V10.2666Z" fill="#263238"/>
<path d="M11.3868 14H10.2668V15.8668H11.3868V14Z" fill="#263238"/>
<path d="M11.3868 17.7334H10.2668V19.5999H11.3868V17.7334Z" fill="#263238"/>
<path d="M9.51966 22.2131V4.66602H8.39966V23.3331H23.3332V22.2131H9.51966Z" fill="#E0E0E5"/>
<path d="M5.63721 10.2666V23.3297C6.13533 23.3098 6.53321 22.903 6.53321 22.4004V10.2666H5.63721Z" fill="#E0E0E5"/>
<path d="M6.53321 8.40039H5.63721V10.2669H6.53321V8.40039Z" fill="#3C3C43" fill-opacity="0.25"/>
</svg>
