<svg width="28" height="28" viewBox="0 0 28 28" fill="none" xmlns="http://www.w3.org/2000/svg">
<path d="M4.66675 8.39941H23.3335V10.2662H4.66675V8.39941ZM4.66675 12.1329H23.3335V23.3332H4.66675V12.1329Z" fill="#F2F2F6"/>
<path d="M18.6668 6.53332V4.66656C18.6666 4.17161 18.47 3.69697 18.12 3.34693C17.7701 2.99689 17.2955 2.8001 16.8006 2.7998H11.1997C10.9546 2.7998 10.7119 2.84809 10.4854 2.94191C10.2589 3.03573 10.0532 3.17323 9.87983 3.34658C9.70651 3.51993 9.56903 3.72572 9.47525 3.95221C9.38147 4.17869 9.33322 4.42143 9.33325 4.66656V6.53332H11.1997V4.66656H16.8006V6.53332H18.6668Z" fill="#B6B6BF"/>
<path d="M9.33325 5.41309H11.1997V6.53309H9.33325V5.41309ZM16.8006 5.41309H18.6668V6.53309H16.8006V5.41309Z" fill="#3C3C43" fill-opacity="0.25"/>
<path d="M23.3336 6.5332H4.66681C3.63949 6.5332 2.80005 7.37348 2.80005 8.39968V23.3335C2.80005 24.3594 3.63949 25.2 4.66681 25.2H23.3336C24.3595 25.2 25.2001 24.3594 25.2001 23.3335V8.39968C25.2001 7.37348 24.3595 6.5332 23.3336 6.5332ZM23.3336 8.39968V10.2664H4.66681V8.39968H23.3336ZM4.66681 23.3335V12.1332H23.3336V23.3335H4.66681Z" fill="#B6B6BF"/>
<path d="M7.4656 14L6.5332 17.7335L7.4656 19.6V23.3335H9.33152L9.33208 19.6L10.2656 17.7335L9.33124 14H7.4656Z" fill="#FFA826"/>
<path d="M16.3319 14V16.9406C16.3319 17.7136 15.7069 18.3406 14.9333 18.3406C14.562 18.3406 14.2059 18.1931 13.9433 17.9305C13.6808 17.668 13.5333 17.3119 13.5333 16.9406V14C12.432 14.5258 11.6665 15.6391 11.6665 16.9406C11.6665 18.2403 12.432 19.3542 13.5333 19.8808V23.3335H16.3321V19.8808C17.4331 19.3542 18.1986 18.2403 18.1986 16.9406C18.1983 15.6391 17.4328 14.5258 16.3319 14Z" fill="#28C8CF"/>
<path d="M19.6001 15.8668V23.3335H21.4669V15.8668L20.5336 14L19.6001 15.8668Z" fill="#B6B6BF"/>
<path d="M7.46558 22.2139H9.3315V23.3339H7.46558V22.2139ZM19.5999 22.2139H21.4667V23.3339H19.5999V22.2139Z" fill="#3C3C43" fill-opacity="0.25"/>
<path d="M13.5332 22.2139H16.3321V23.3339H13.5332V22.2139Z" fill="#3C3C43" fill-opacity="0.25"/>
<path d="M16.3318 22.2139H19.5999V23.3339H16.3318V22.2139ZM9.33179 22.2139H13.5329V23.3339H9.33179V22.2139Z" fill="#E0E0E5"/>
<path d="M4.66675 10.2666H5.78675V12.1334H4.66675V10.2666Z" fill="#3C3C43" fill-opacity="0.25"/>
<path d="M21.4667 22.2132H23.3335V23.3332H21.4667V22.2132ZM4.66675 8.39941H5.78675V10.2662H4.66675V8.39941ZM5.78675 12.1329H4.66675V23.3332H7.46563V22.2132H5.78675V12.1329Z" fill="#E0E0E5"/>
</svg>
