<svg width="28" height="28" viewBox="0 0 28 28" fill="none" xmlns="http://www.w3.org/2000/svg">
<path d="M2.80005 4.2002H12.88V6.44029H22.9599V17.6401H20.7195V20.9218L15.7978 17.6401H5.04015V12.04H2.80005V4.2002Z" fill="#F2F2F6"/>
<path d="M5.04004 17.6399H15.7977L20.7194 20.9216V17.6399H22.9598V16.2959H19.3754V18.41L16.2046 16.2959H5.04004V17.6399Z" fill="#E0E0E5"/>
<path d="M22.96 4.2002H2.80005L5.13014 6.44029H22.96V17.6401H20.7195V20.9218L15.7978 17.6401H5.04017L5.13014 6.44029L2.80005 4.2002L2.80007 17.6401C2.80007 18.8705 3.80807 19.8795 5.04017 19.8795H15.1201L21.8401 24.3601H22.96V19.8795C24.1914 19.8795 25.2001 18.8705 25.2001 17.6401V6.44029C25.2001 5.20752 24.1914 4.2002 22.96 4.2002Z" fill="#B6B6BF"/>
<path d="M7.27979 12.5296H20.7194V14.7696H7.27979V12.5296ZM12.8799 8.67969H20.7194V10.9198H12.8799V8.67969Z" fill="#28C8CF"/>
<path d="M19.3755 12.5296H20.7195V14.7696H19.3755V12.5296ZM19.3755 8.67969H20.7195V10.9198H19.3755V8.67969Z" fill="#3C3C43" fill-opacity="0.25"/>
</svg>
