<svg width="28" height="28" viewBox="0 0 28 28" fill="none" xmlns="http://www.w3.org/2000/svg">
<path d="M15.8664 2.7998C15.1484 2.7998 14.4955 3.07252 13.9999 3.51744C13.504 3.07252 12.8513 2.7998 12.1331 2.7998C7.49492 2.7998 3.7334 9.48313 3.7334 17.7333C3.73368 21.8555 7.07576 25.1998 11.1999 25.1998L12.1331 25.1987C12.8513 25.1987 13.5043 24.9262 13.9999 24.4816C14.4955 24.9262 15.1484 25.1987 15.8661 25.1987L16.7999 25.1998C20.9246 25.1998 24.2661 21.8555 24.2661 17.7333C24.2661 9.48313 20.5046 2.7998 15.8664 2.7998ZM11.1999 18.6666C9.91216 18.6666 8.86664 17.6224 8.86664 16.3333V14.9333H7.46664V16.3333C7.46664 18.073 8.65776 19.5292 10.2666 19.9442V21.9333H11.6666V20.0666H13.0666V22.3987C13.0666 22.9139 12.6483 23.3319 12.1334 23.3319L11.1993 23.3328C8.11232 23.3319 5.60044 20.8203 5.60044 17.7333C5.60044 16.1113 5.75472 14.538 6.04956 13.0668H8.8672C9.64 13.0668 10.2672 13.6929 10.2672 14.4668V16.333H11.6672V14.4668C11.6672 12.919 10.4122 11.6668 8.86748 11.6668H6.3836C6.74592 10.3531 7.22752 9.14377 7.82196 8.08761C9.045 5.91396 10.6161 4.66629 12.1337 4.66629C12.6478 4.66629 13.0669 5.08573 13.0669 5.60037V6.5336C13.0669 7.8216 12.0225 8.86685 10.7337 8.86685H8.8672V10.2666H10.7337C11.6174 10.2666 12.4277 9.95773 13.0669 9.44505V18.666H11.1999V18.6666ZM16.8016 23.3328L15.8664 23.3319C15.3523 23.3319 14.9331 22.9139 14.9331 22.3987V20.0666H16.3331V21.9333H17.7331V19.9442C19.3417 19.5295 20.5331 18.073 20.5331 16.3333V14.9333H19.1331V16.3333C19.1331 17.6224 18.0876 18.6666 16.7999 18.6666H14.9331V9.44561C15.5721 9.95829 16.3827 10.2671 17.2661 10.2671H19.1331V8.86741H17.2661C15.9778 8.86741 14.9331 7.82189 14.9331 6.53417V5.60092C14.9331 5.086 15.3523 4.66684 15.8664 4.66684C17.384 4.66684 18.9562 5.91452 20.1792 8.08816C20.7731 9.14433 21.2547 10.3534 21.617 11.6674H19.1331C17.5881 11.6674 16.3331 12.9198 16.3331 14.4674V16.3336H17.7331V14.4674C17.7331 13.6932 18.3598 13.0674 19.1331 13.0674H21.9508C22.2456 14.5382 22.3996 16.1118 22.3996 17.7339C22.3993 20.8203 19.8877 23.3319 16.8016 23.3328Z" fill="#EC407A"/>
<path d="M13.0668 9.44533C12.4276 9.95801 11.6173 10.2669 10.7336 10.2669H8.8671V8.86713H10.7336C12.0224 8.86713 13.0668 7.82161 13.0668 6.5339V5.60066C13.0668 5.08574 12.6474 4.66658 12.1336 4.66658C10.616 4.66658 9.0449 5.91426 7.82186 8.08789C7.22742 9.14405 6.74582 10.3531 6.3835 11.6671H8.86738C10.4121 11.6671 11.6671 12.9196 11.6671 14.4671V16.3333H10.2671V14.4671C10.2671 13.6929 9.6399 13.0671 8.8671 13.0671H6.04946C5.75462 14.538 5.60034 16.1116 5.60034 17.7336C5.60034 20.8206 8.11222 23.3322 11.1992 23.3331L12.1333 23.3322C12.6482 23.3322 13.0665 22.9142 13.0665 22.399V20.0669H11.6665V21.9336H10.2665V19.9445C8.65766 19.5298 7.46654 18.0733 7.46654 16.3336V14.9336H8.86654V16.3336C8.86654 17.6227 9.91178 18.6669 11.1998 18.6669H13.0665L13.0668 9.44533ZM19.1333 13.0666C18.3599 13.0666 17.7333 13.6927 17.7333 14.4666V16.3328H16.3333V14.4666C16.3333 12.9187 17.5883 11.6666 19.1333 11.6666H21.6172C21.2549 10.3528 20.7733 9.14349 20.1794 8.08733C18.9563 5.9137 17.3841 4.66602 15.8665 4.66602C15.3525 4.66602 14.9333 5.08546 14.9333 5.6001V6.53333C14.9333 7.82133 15.978 8.86657 17.2663 8.86657H19.1333V10.2663H17.2663C16.3829 10.2663 15.5723 9.95745 14.9333 9.44478V18.6657H16.8001C18.0878 18.6657 19.1333 17.6216 19.1333 16.3325V14.9325H20.5333V16.3325C20.5333 18.0721 19.3419 19.5284 17.7333 19.9434V21.9325H16.3333V20.0657H14.9333V22.3979C14.9333 22.9131 15.3525 23.3311 15.8665 23.3311L16.8017 23.3319C19.8879 23.3311 22.3995 20.8195 22.3995 17.7325C22.3995 16.1105 22.2455 14.5371 21.9507 13.066H19.1333V13.0666Z" fill="#FCE4EC"/>
<path d="M6.04932 13.0671H7.1934C7.29504 12.5875 7.41124 12.1193 7.54424 11.6671H6.3828C6.25764 12.1221 6.14536 12.5886 6.04932 13.0671ZM21.6168 11.6671H20.4553C20.5886 12.1193 20.7048 12.5875 20.8062 13.0671H21.9508C21.8545 12.5886 21.7422 12.1221 21.6168 11.6671ZM11.1999 20.0669C10.8771 20.0669 10.5654 20.0218 10.2667 19.9442V21.0956C10.5688 21.1547 10.8807 21.1866 11.1999 21.1866H11.6667V20.0666L11.1999 20.0669ZM11.9467 8.52414V10.0619C12.3569 9.9205 12.7352 9.7119 13.0667 9.4459V6.53418C13.0667 7.37754 12.6176 8.11422 11.9467 8.52414ZM16.0532 8.52414V10.0619C15.643 9.9205 15.265 9.7119 14.9332 9.4459V6.53418C14.9332 7.37754 15.3826 8.11422 16.0532 8.52414Z" fill="#3C3C43" fill-opacity="0.25"/>
<path d="M13.0668 18.667H11.9468V20.067H13.0668V18.667Z" fill="#3C3C43" fill-opacity="0.25"/>
<path d="M16.8 20.067C17.1229 20.067 17.4345 20.0219 17.7333 19.9443V21.0957C17.4309 21.1548 17.1192 21.1867 16.8 21.1867H16.3333V20.0667L16.8 20.067Z" fill="#3C3C43" fill-opacity="0.25"/>
<path d="M16.0533 18.667H14.9333V20.067H16.0533V18.667Z" fill="#3C3C43" fill-opacity="0.25"/>
<path d="M6.72034 17.7338C6.72034 16.1016 6.88414 14.5266 7.19354 13.0673H6.04946C5.75462 14.5381 5.60034 16.1117 5.60034 17.7338C5.60034 20.8208 8.11222 23.3324 11.1992 23.3332L12.1333 23.3324C12.6482 23.3324 13.0665 22.9143 13.0665 22.3991V22.2129L11.1995 22.2132C8.7299 22.2129 6.72034 20.2031 6.72034 17.7338ZM12.1333 4.66699C10.6157 4.66699 9.04462 5.91467 7.82158 8.08831C7.22714 9.14447 6.74554 10.3535 6.38322 11.6676H7.54466C7.8717 10.5576 8.29142 9.53675 8.79766 8.63767C9.80202 6.85267 11.0491 5.78699 12.1336 5.78699H13.0668V5.60107C13.0668 5.08615 12.6474 4.66699 12.1333 4.66699ZM20.8063 13.0673C21.116 14.5264 21.2795 16.1014 21.2795 17.7338C21.2795 20.2031 19.2702 22.2129 16.8006 22.2132L14.9333 22.2129V22.3991C14.9333 22.9143 15.3516 23.3324 15.8665 23.3324L16.8009 23.3332C19.8879 23.3324 22.3995 20.8208 22.3995 17.7338C22.3995 16.1117 22.2455 14.5384 21.9507 13.0673H20.8063ZM19.2022 8.63767C19.7087 9.53675 20.1287 10.5576 20.4555 11.6676H21.6169C21.2546 10.3538 20.7727 9.14447 20.1783 8.08831C18.9555 5.91467 17.3841 4.66699 15.8665 4.66699C15.3525 4.66699 14.9333 5.08643 14.9333 5.60107V5.78699H15.8665C16.951 5.78699 18.1981 6.85267 19.2022 8.63767Z" fill="#F8BBD0"/>
</svg>
