<svg width="28" height="28" viewBox="0 0 28 28" fill="none" xmlns="http://www.w3.org/2000/svg">
<path d="M12.1333 21.3068V25.2005H14.0001V21.4672C14.0001 20.954 13.7024 20.2363 13.3404 19.874L12.1333 21.3068Z" fill="#B6B6BF"/>
<path d="M13.3404 19.874L12.1333 21.3068V23.0453L13.9141 20.9307C13.8007 20.5315 13.5868 20.1204 13.3404 19.874Z" fill="#3C3C43" fill-opacity="0.25"/>
<path d="M14 25.2002V10.267H15.8665V4.66699H23.333V25.2002H14Z" fill="#FFEBEE"/>
<path d="M9.33314 6.5325C9.84856 6.5325 10.2664 6.11467 10.2664 5.59926C10.2664 5.08384 9.84856 4.66602 9.33314 4.66602C8.81773 4.66602 8.3999 5.08384 8.3999 5.59926C8.3999 6.11467 8.81773 6.5325 9.33314 6.5325Z" fill="#F2F2F6"/>
<path d="M9.3332 2.7998C7.78732 2.7998 6.5332 4.05364 6.5332 5.59924C6.5332 7.1468 7.78732 8.39924 9.3332 8.39924C10.8796 8.39924 12.1332 7.1468 12.1332 5.59924C12.1332 4.05364 10.8796 2.7998 9.3332 2.7998ZM9.3332 6.53304C9.08573 6.53304 8.84839 6.43474 8.6734 6.25975C8.49841 6.08476 8.4001 5.84742 8.4001 5.59994C8.4001 5.35247 8.49841 5.11513 8.6734 4.94014C8.84839 4.76515 9.08573 4.66684 9.3332 4.66684C9.45574 4.66673 9.5771 4.69078 9.69034 4.7376C9.80358 4.78443 9.90648 4.85312 9.99315 4.93974C10.0798 5.02636 10.1486 5.12922 10.1955 5.24243C10.2424 5.35564 10.2665 5.47699 10.2664 5.59952C10.2666 5.72212 10.2425 5.84354 10.1956 5.95683C10.1488 6.07012 10.08 6.17307 9.99337 6.25977C9.90669 6.34647 9.80377 6.41524 9.69049 6.46213C9.57721 6.50902 9.4558 6.53312 9.3332 6.53304Z" fill="#B6B6BF"/>
<path d="M9.03354 6.2329C9.03347 6.1103 9.05757 5.98889 9.10446 5.87561C9.15135 5.76233 9.22011 5.65941 9.30682 5.57273C9.39352 5.48605 9.49646 5.41732 9.60975 5.37046C9.72304 5.32361 9.84446 5.29955 9.96706 5.29966C10.0572 5.29966 10.1426 5.31674 10.2255 5.34026C10.17 5.14628 10.053 4.9756 9.89202 4.85398C9.73105 4.73235 9.53489 4.66638 9.33314 4.66602C9.21055 4.66598 9.08916 4.6901 8.9759 4.73701C8.86264 4.78391 8.75973 4.85268 8.67306 4.93937C8.58639 5.02607 8.51766 5.129 8.47079 5.24227C8.42392 5.35555 8.39983 5.47695 8.3999 5.59954C8.40016 5.80127 8.46606 5.99745 8.58764 6.15843C8.70922 6.31941 8.87989 6.43646 9.07386 6.4919C9.04828 6.4079 9.0347 6.3207 9.03354 6.2329Z" fill="#DADAE3"/>
<path d="M9.08525 20.2371L4.11944 25.1998L2.7998 23.8799L7.76477 18.916L9.08525 20.2371Z" fill="#B6B6BF"/>
<path d="M13.3402 19.8734L10.2664 16.7982V10.2666H8.3999V17.5729L12.1331 21.3062L13.3402 19.8734Z" fill="#B6B6BF"/>
<path d="M8.40002 10.2666L5.32646 13.3399C4.96386 13.7028 4.6665 14.419 4.6665 14.9331V16.7998H6.53354V14.7729L8.40002 12.9062V10.2666Z" fill="#B6B6BF"/>
<path d="M7.27979 14.0264L8.39979 12.9062V10.2666L7.27979 11.3863V14.0264Z" fill="#3C3C43" fill-opacity="0.25"/>
<path d="M14.5469 17.1866L15.8665 15.867L11.6665 11.667V14.3066L14.5469 17.1866Z" fill="#B6B6BF"/>
<path d="M14 2.7998V10.2666H15.8665V4.66656H23.333V25.1998H25.2V2.7998H14Z" fill="#EF5350"/>
<path d="M20.5328 14.9329C21.0483 14.9329 21.4661 14.5151 21.4661 13.9996C21.4661 13.4842 21.0483 13.0664 20.5328 13.0664C20.0174 13.0664 19.5996 13.4842 19.5996 13.9996C19.5996 14.5151 20.0174 14.9329 20.5328 14.9329Z" fill="#3C3C43" fill-opacity="0.6"/>
<path d="M20.2337 14.634C20.2337 14.3865 20.3321 14.1491 20.5071 13.9741C20.6821 13.7991 20.9195 13.7007 21.167 13.7007C21.2574 13.7007 21.3434 13.7178 21.426 13.7416C21.3705 13.5476 21.2534 13.3769 21.0924 13.2553C20.9314 13.1336 20.7351 13.0677 20.5333 13.0674C20.4108 13.0673 20.2894 13.0915 20.1762 13.1383C20.063 13.1852 19.9601 13.2539 19.8735 13.3405C19.7868 13.4272 19.718 13.53 19.6711 13.6432C19.6242 13.7565 19.6001 13.8778 19.6001 14.0003C19.6006 14.202 19.6666 14.3981 19.7882 14.559C19.9098 14.7199 20.0804 14.8369 20.2743 14.8924C20.2486 14.8087 20.2349 14.7216 20.2337 14.634Z" fill="#3C3C43" fill-opacity="0.6"/>
<path d="M8.29342 21.0271L6.97266 19.7061L7.76506 18.9142L9.08526 20.2353L8.29342 21.0271ZM12.7863 12.787L11.6663 11.667V14.3066L12.7863 15.4266V12.787Z" fill="#3C3C43" fill-opacity="0.25"/>
<path d="M15.8667 4.66699V5.78699H22.2132V25.2002H23.3332V4.66699H15.8667Z" fill="#FFCDD2"/>
</svg>
