<svg width="28" height="28" viewBox="0 0 28 28" fill="none" xmlns="http://www.w3.org/2000/svg">
<path d="M14 4.81055L9.3332 6.67731L6.5332 5.55703V11.2234C6.53488 12.9807 6.87396 14.6892 7.54148 16.3001C8.79644 19.3297 11.0734 21.7396 14 23.1545C16.9254 21.7399 19.2026 19.3311 20.4582 16.3001C21.1254 14.6895 21.4645 12.9815 21.4667 11.2251V5.55703L18.6667 6.67731L14 4.81055Z" fill="#FFF3E0"/>
<path d="M15.2031 22.4917C14.815 22.7308 14.4149 22.9537 14 23.1545C11.0734 21.7393 8.79644 19.3297 7.54148 16.3001C6.87396 14.6892 6.53488 12.9807 6.5332 11.2234V5.55703L9.3332 6.67731L14 4.81055L18.6667 6.67731L21.4667 5.55703V6.76327L18.6667 7.88355L14 6.01651L9.3332 7.88327L7.6532 7.21127V11.2234C7.65488 12.8325 7.96568 14.3969 8.57608 15.8711C9.71736 18.626 11.8165 20.8548 14.4872 22.1462L15.2031 22.4917Z" fill="#FFE0B2"/>
<path d="M18.667 4.66656L14.0002 2.7998L9.33347 4.66656L4.66699 2.7998V11.2253C4.66867 13.2306 5.06347 15.1962 5.81695 17.0157C7.29899 20.5916 10.143 23.6021 14.0002 25.1998C17.8572 23.6021 20.7015 20.5916 22.1838 17.0157C22.937 15.1962 23.3324 13.2306 23.3335 11.2253V2.7998L18.667 4.66656ZM21.467 11.2253C21.4648 12.9817 21.1257 14.6897 20.4584 16.3003C19.2029 19.3313 16.9257 21.7404 14.0002 23.1547C11.0737 21.7396 8.79671 19.3299 7.54175 16.3003C6.87423 14.6894 6.53515 12.9809 6.53347 11.2236V5.55724L9.33347 6.67752L14.0002 4.81076L18.667 6.67752L21.467 5.55724V11.2253Z" fill="#FFA826"/>
<path d="M19.5998 11.2006L13.9998 16.7998C13.9998 16.8004 10.2666 13.0677 10.2666 13.0677L11.5874 11.7475C11.5874 11.7475 12.926 13.0873 13.9998 14.1602L18.2799 9.87988L19.5998 11.2006Z" fill="#28C8CF"/>
<path d="M12.3792 12.5395C11.9166 12.0766 11.5874 11.7471 11.5874 11.7471L10.2666 13.0673C10.2666 13.0673 10.5962 13.3971 11.0587 13.8591L12.3792 12.5395Z" fill="#3C3C43" fill-opacity="0.25"/>
</svg>
