<svg width="28" height="28" viewBox="0 0 28 28" fill="none" xmlns="http://www.w3.org/2000/svg">
<path d="M4.66653 12.1328H2.80005V25.1987H4.66653V12.1328Z" fill="#455A64"/>
<path d="M4.6665 23.9952L8.45546 24.9413C9.4517 25.1919 11.0978 25.2739 12.1131 25.1252L24.0478 23.1904C24.2755 23.0947 24.4818 22.958 24.6532 22.7858C24.9923 22.4476 25.2 21.982 25.2 21.4659C25.2 19.4034 23.5281 17.7318 21.4665 17.7318H13.9997C13.9997 15.6702 12.3281 14 10.2665 14H4.6665V15.8662H10.2665C11.2955 15.8662 12.1333 16.7037 12.1333 17.7318H8.39974V19.5992H21.4665C22.4781 19.5992 23.3008 20.4106 23.3279 21.4166L11.8449 23.2795C11.0701 23.3943 9.6701 23.3215 8.90738 23.1319L4.6665 22.071V23.9952Z" fill="#C3996B"/>
<path d="M5.7865 14H4.6665V15.8662H5.7865V14Z" fill="#A87C4F"/>
<path d="M5.7865 22.3516L4.6665 22.0713V23.9954L5.7865 24.2752V22.3516Z" fill="#A87C4F"/>
<path d="M4.6665 15.8662H10.2665C11.2955 15.8662 12.1333 16.7037 12.1333 17.7319H8.39974V19.5992H21.4665C22.4781 19.5992 23.3008 20.4106 23.3279 21.4167L11.8449 23.2795C11.0701 23.3943 9.6701 23.3215 8.90738 23.1319L4.6665 22.071V15.8662Z" fill="#EEEAE8"/>
<path d="M4.6665 15.8662V22.071L8.90738 23.1319C9.67038 23.3218 11.0704 23.3946 11.8449 23.2795L23.3279 21.4166C23.317 21.014 23.177 20.6436 22.9502 20.3431L11.6805 22.1718C11.062 22.2634 9.7989 22.1995 9.17898 22.0455L5.78622 21.1969V15.8662H4.6665Z" fill="#D7CCC8"/>
<path d="M17.7333 13.1826C14.1619 11.4262 12.1333 9.25423 12.1333 7.15535C12.1333 5.78363 13.2497 4.66699 14.6214 4.66699C15.2945 4.66699 15.9253 4.93299 16.3994 5.41711L17.7336 6.77707L19.0664 5.41711C19.5401 4.93299 20.1729 4.66699 20.8455 4.66699C22.2161 4.66699 23.3336 5.78335 23.3336 7.15535C23.3333 9.25507 21.3047 11.4262 17.7333 13.1826Z" fill="#FCE4EC"/>
<path d="M13.4771 6.93135C13.4771 5.93959 14.0623 5.08363 14.9039 4.68435C14.8107 4.67399 14.7166 4.66699 14.6211 4.66699C13.2494 4.66699 12.1331 5.78335 12.1331 7.15535C12.1331 9.25451 14.1619 11.4262 17.7331 13.1826C18.0397 13.032 18.3303 12.8772 18.6134 12.7209C15.3335 11.0082 13.4771 8.93699 13.4771 6.93135Z" fill="#F8BBD0"/>
<path d="M20.8453 2.7998C19.6239 2.7998 18.5246 3.30184 17.7334 4.11048C16.9407 3.30184 15.8414 2.7998 14.6214 2.7998C12.2188 2.7998 10.2666 4.75196 10.2666 7.15464C10.2666 10.3156 13.1176 13.1738 17.7334 15.2433C22.3508 13.1741 25.2001 10.3156 25.2001 7.15492C25.2001 4.75224 23.2494 2.7998 20.8453 2.7998ZM17.7334 13.1822C14.162 11.4258 12.1334 9.2538 12.1334 7.15492C12.1334 5.7832 13.2497 4.66656 14.6214 4.66656C15.2946 4.66656 15.9254 4.93256 16.3994 5.41668L17.7336 6.77664L19.0664 5.41668C19.5402 4.93256 20.173 4.66656 20.8456 4.66656C22.2162 4.66656 23.3336 5.78292 23.3336 7.15492C23.3334 9.25464 21.3048 11.4258 17.7334 13.1822Z" fill="#EC407A"/>
<path d="M12.1333 17.7323H13.9998C13.9998 17.342 13.9393 16.9659 13.8281 16.6123H11.7559C11.9916 16.9248 12.1333 17.3117 12.1333 17.7323Z" fill="#A87C4F"/>
</svg>
