<svg width="28" height="28" viewBox="0 0 28 28" fill="none" xmlns="http://www.w3.org/2000/svg">
<path d="M9.71021 7.84234L10.7 8.83271C12.5231 7.01047 15.4776 7.01047 17.2996 8.83271L18.2902 7.84234C15.92 5.47354 12.0801 5.4727 9.71021 7.84234Z" fill="#3C3C43" fill-opacity="0.25"/>
<path d="M21.6709 15.1922C21.5872 15.3241 21.4704 15.71 21.4668 15.8687V19.6H23.3333V14H22.4656L21.6709 15.1922Z" fill="#FFF8E1"/>
<path d="M23.3333 12.1328H21.4669L20.1178 14.1564C19.8333 14.5828 19.6001 15.3514 19.6001 15.8661V20.7932L21.4543 21.4661H23.3333C23.8283 21.4658 24.303 21.2691 24.653 20.9191C25.003 20.5692 25.1998 20.0946 25.2001 19.5996V13.9996C25.2001 13.7544 25.1519 13.5117 25.0581 13.2852C24.9643 13.0586 24.8268 12.8528 24.6534 12.6795C24.4801 12.5061 24.2743 12.3686 24.0478 12.2748C23.8213 12.181 23.5785 12.1328 23.3333 12.1328ZM23.3333 19.5996H21.4669V15.8683C21.4705 15.7095 21.5873 15.3237 21.671 15.1918L22.4656 13.9996H23.3333V19.5996Z" fill="#FFC928"/>
<path d="M19.6001 20.7939C18.232 22.3474 16.2331 23.3335 14.0001 23.3335H12.1333V25.2003H14.0001C17.0512 25.2003 19.7518 23.7295 21.4545 21.4668L19.6001 20.7939Z" fill="#B6B6BF"/>
<path d="M19.6 20.7939C19.324 21.1067 19.0228 21.3962 18.6992 21.6594L20.6724 22.3748C20.9518 22.089 21.2129 21.7858 21.4541 21.4671L19.6 20.7939Z" fill="#3C3C43" fill-opacity="0.25"/>
<path d="M4.66675 12.133C4.66675 6.97656 8.84519 2.7998 14 2.7998C19.1562 2.7998 23.3332 6.97656 23.3332 12.133H21.4667C21.4667 8.0078 18.1249 4.66628 14 4.66628C9.87615 4.66628 6.53323 8.00808 6.53323 12.133H4.66675Z" fill="#B6B6BF"/>
<path d="M21.4668 12.1337H23.3333C23.3333 11.7543 23.3084 11.381 23.2641 11.0137H21.3828C21.438 11.3788 21.4668 11.7532 21.4668 12.1337Z" fill="#3C3C43" fill-opacity="0.25"/>
<path d="M4.66675 19.6H6.53351V15.8687C6.52987 15.71 6.41311 15.3241 6.32939 15.1922L5.53447 14H4.66675V19.6Z" fill="#FFF8E1"/>
<path d="M4.73594 11.0137C4.69055 11.3853 4.66736 11.7593 4.6665 12.1337H6.53326C6.53326 11.7532 6.5621 11.3788 6.61698 11.0137H4.73594Z" fill="#3C3C43" fill-opacity="0.25"/>
<path d="M7.88233 14.1564L6.53329 12.1328H4.66653C4.42138 12.1327 4.17861 12.181 3.95211 12.2748C3.7256 12.3686 3.5198 12.5061 3.34647 12.6794C3.17313 12.8528 3.03565 13.0586 2.9419 13.2851C2.84814 13.5116 2.79994 13.7544 2.80005 13.9996V19.5996C2.8002 20.0946 2.99693 20.5693 3.34699 20.9193C3.69705 21.2693 4.17178 21.466 4.66681 21.4661H7.46681C7.71432 21.4661 7.95169 21.3677 8.12671 21.1927C8.30173 21.0177 8.40005 20.7803 8.40005 20.5328V15.8661C8.40005 15.3514 8.16709 14.5828 7.88233 14.1564ZM6.53329 19.5996H4.66653V13.9996H5.53425L6.32889 15.1918C6.41261 15.3237 6.52937 15.7095 6.53301 15.8683L6.53329 19.5996Z" fill="#FFC928"/>
<path d="M5.53447 18.7323V14H4.66675V19.6H6.53323V18.7323H5.53447ZM21.4667 18.7323H23.3332V19.6H21.4667V18.7323Z" fill="#FFECB3"/>
</svg>
