<svg width="28" height="28" viewBox="0 0 28 28" fill="none" xmlns="http://www.w3.org/2000/svg">
<path d="M15.8669 2.7998H7.46686C6.97174 2.79988 6.49692 2.99662 6.14684 3.34675C5.79676 3.69688 5.6001 4.17172 5.6001 4.66684V23.3322C5.60006 23.5774 5.64832 23.8201 5.74212 24.0466C5.83592 24.2731 5.97343 24.4789 6.14678 24.6523C6.32013 24.8256 6.52593 24.9631 6.75244 25.0569C6.97894 25.1507 7.2217 25.199 7.46686 25.199L20.5333 25.1998C21.0284 25.1998 21.5032 25.0032 21.8532 24.6531C22.2033 24.3031 22.4 23.8284 22.4001 23.3333V9.33417L15.8669 2.7998ZM16.8001 6.3726L18.827 8.40036H16.8001V6.3726ZM20.5333 23.3322H7.46686V4.66684H14.9333V8.40036C14.9335 8.89539 15.1302 9.37009 15.4803 9.7201C15.8303 10.0701 16.3051 10.2668 16.8001 10.2668H20.5333V23.3322Z" fill="#BDBDC2"/>
<path d="M18.8267 8.40081L16.7998 6.37305V8.40081H18.8267Z" fill="#F0F0F4"/>
<path d="M7.4668 23.3324H20.5333V10.267H16.8C16.305 10.2669 15.8303 10.0703 15.4802 9.72025C15.1302 9.37024 14.9334 8.89554 14.9333 8.40051V4.66699H7.4668V23.3324Z" fill="#F0F0F4"/>
<path d="M13.0669 19.5996H18.6666V21.4661H13.0669V19.5996ZM13.0669 15.8661H18.6666V17.7331H13.0669V15.8661ZM13.0669 12.1328H18.6666V13.9996H13.0669V12.1328Z" fill="#29B6F6"/>
<path d="M17.5464 19.5996H18.6664V21.4661H17.5464V19.5996ZM17.5464 15.8661H18.6664V17.7331H17.5464V15.8661ZM17.5464 12.1328H18.6664V13.9996H17.5464V12.1328Z" fill="#3C3C43" fill-opacity="0.2"/>
<path d="M9.33301 19.5996H11.1998V21.4661H9.33301V19.5996ZM9.33301 15.8661H11.1998V17.7331H9.33301V15.8661ZM9.33301 12.1328H11.1998V13.9996H9.33301V12.1328Z" fill="#EF5350"/>
<path d="M20.5335 10.2668H22.4002V11.3868H20.5335V10.2668ZM13.8135 2.7998H14.9335V4.66684H13.8135V2.7998Z" fill="#3C3C43" fill-opacity="0.2"/>
<path d="M16.8 10.267C16.305 10.2669 15.8303 10.0703 15.4802 9.72025C15.1302 9.37024 14.9334 8.89554 14.9333 8.40051V4.66699H7.4668V5.78699H13.8133V8.40051C13.8133 10.0472 15.1534 11.387 16.8 11.387H19.4133V23.3324H20.5333V10.267H16.8Z" fill="#E0E0E4"/>
</svg>
