<svg width="28" height="28" viewBox="0 0 28 28" fill="none" xmlns="http://www.w3.org/2000/svg">
<path d="M19.6001 16.7998H21.4669C21.9619 16.7999 22.4366 16.9965 22.7866 17.3466C23.1366 17.6966 23.3333 18.1713 23.3333 18.6663V20.5333H19.6001V16.7998Z" fill="#E5F7E8"/>
<path d="M15.8667 9.33356C15.8666 9.57873 15.9148 9.82153 16.0086 10.0481C16.1023 10.2746 16.2398 10.4804 16.4132 10.6538C16.5866 10.8272 16.7924 10.9647 17.019 11.0584C17.2455 11.1522 17.4883 11.2004 17.7335 11.2003C17.9786 11.2004 18.2214 11.1521 18.4479 11.0583C18.6744 10.9645 18.8802 10.827 19.0535 10.6536C19.2269 10.4803 19.3644 10.2745 19.4582 10.048C19.552 9.82148 19.6003 9.57871 19.6002 9.33356C19.6001 8.83851 19.4033 8.36378 19.0533 8.01372C18.7032 7.66367 18.2285 7.46695 17.7335 7.4668C17.2384 7.46687 16.7636 7.66357 16.4135 8.01364C16.0635 8.36371 15.8668 8.83848 15.8667 9.33356Z" fill="#EEEAE8"/>
<path d="M4.66675 20.533H15.8667V18.6663C15.8666 18.1713 15.6699 17.6966 15.3198 17.3465C14.9697 16.9965 14.495 16.7999 14 16.7998H6.53323C6.03823 16.7999 5.56353 16.9965 5.21351 17.3466C4.86349 17.6966 4.66682 18.1713 4.66675 18.6663V20.533Z" fill="#FFF3E0"/>
<path d="M5.78675 20.533V18.6663C5.78704 18.4684 5.86579 18.2787 6.00571 18.1388C6.14564 17.9988 6.33534 17.9201 6.53323 17.9198H14C14.495 17.9199 14.9697 18.1165 15.3198 18.4665C15.6699 18.8166 15.8666 19.2913 15.8667 19.7863V18.6663C15.8666 18.1713 15.6699 17.6966 15.3198 17.3465C14.9697 16.9965 14.495 16.7999 14 16.7998H6.53323C6.03823 16.7999 5.56353 16.9965 5.21351 17.3466C4.86349 17.6966 4.66682 18.1713 4.66675 18.6663V20.533H5.78675Z" fill="#FFE0B2"/>
<path d="M14 14.9336H6.53329C4.47165 14.9336 2.80005 16.6063 2.80005 18.6668V22.4004H17.7333V18.6668C17.7333 16.6063 16.0617 14.9336 14 14.9336ZM15.8668 20.5336H4.66681V18.6668C4.66688 18.1718 4.86355 17.6971 5.21357 17.3471C5.56359 16.9971 6.03829 16.8004 6.53329 16.8004H14C14.4951 16.8004 14.9698 16.9971 15.3199 17.3471C15.6699 17.6971 15.8667 18.1718 15.8668 18.6668V20.5336Z" fill="#FFA826"/>
<path d="M8.39966 9.33356C8.39958 9.57872 8.44782 9.8215 8.54161 10.048C8.63539 10.2745 8.7729 10.4804 8.94626 10.6537C9.11961 10.8271 9.32543 10.9646 9.55195 11.0584C9.77847 11.1522 10.0213 11.2004 10.2664 11.2003C10.5116 11.2004 10.7544 11.1522 10.9809 11.0584C11.2074 10.9646 11.4132 10.8271 11.5866 10.6537C11.7599 10.4804 11.8974 10.2745 11.9912 10.048C12.085 9.8215 12.1333 9.57872 12.1332 9.33356C12.1331 8.83848 11.9364 8.36371 11.5863 8.01364C11.2363 7.66357 10.7615 7.46687 10.2664 7.4668C9.77137 7.46695 9.29664 7.66367 8.94658 8.01372C8.59653 8.36378 8.39981 8.83851 8.39966 9.33356Z" fill="#EEEAE8"/>
<path d="M10.2664 5.59961C8.20508 5.59961 6.5332 7.27149 6.5332 9.33285C6.5332 11.3945 8.20508 13.0661 10.2664 13.0661C12.3281 13.0661 13.9997 11.395 13.9997 9.33285C13.9997 7.27093 12.3281 5.59961 10.2664 5.59961ZM10.2664 11.1996C10.0213 11.1997 9.7785 11.1514 9.55198 11.0577C9.32546 10.9639 9.11964 10.8264 8.94628 10.653C8.77292 10.4797 8.63542 10.2738 8.54163 10.0473C8.44784 9.8208 8.39961 9.57802 8.39968 9.33285C8.39983 8.8378 8.59656 8.36307 8.94661 8.01301C9.29666 7.66296 9.77139 7.46624 10.2664 7.46609C10.7615 7.46616 11.2363 7.66286 11.5864 8.01293C11.9364 8.363 12.1331 8.83778 12.1332 9.33285C12.1333 9.57802 12.085 9.8208 11.9913 10.0473C11.8975 10.2738 11.76 10.4797 11.5866 10.653C11.4132 10.8264 11.2074 10.9639 10.9809 11.0577C10.7544 11.1514 10.5116 11.1997 10.2664 11.1996Z" fill="#C3996B"/>
<path d="M9.19153 10.1257C9.1915 9.8806 9.23975 9.63786 9.33353 9.41138C9.42731 9.1849 9.56479 8.9791 9.73811 8.80576C9.91144 8.63241 10.1172 8.4949 10.3437 8.40108C10.5701 8.30726 10.8129 8.25898 11.058 8.25898C11.3585 8.25886 11.6546 8.33169 11.9207 8.47122C11.7853 8.21139 11.5905 7.9871 11.3523 7.81653C11.114 7.64596 10.839 7.53389 10.5494 7.48941C10.2598 7.44492 9.96374 7.46926 9.68528 7.56046C9.40683 7.65166 9.15377 7.80716 8.94659 8.01436C8.73941 8.22156 8.58394 8.47464 8.49277 8.75311C8.4016 9.03157 8.37729 9.32759 8.42181 9.6172C8.46633 9.90681 8.57843 10.1819 8.74903 10.4201C8.91963 10.6583 9.14393 10.853 9.40377 10.9884C9.26438 10.7222 9.19156 10.4262 9.19153 10.1257Z" fill="#D7CCC8"/>
<path d="M21.4669 14.9336H19.6001V16.8001H21.4669C21.9619 16.8001 22.4366 16.9968 22.7866 17.3468C23.1366 17.6969 23.3333 18.1716 23.3333 18.6666V20.5336H19.6001V22.4001H25.2001V18.6666C25.2001 16.6074 23.5282 14.9336 21.4669 14.9336Z" fill="#34C759"/>
<path d="M15.8735 6.11369C16.4232 5.79533 17.0532 5.59961 17.7333 5.59961C19.7947 5.59961 21.4668 7.27093 21.4668 9.33285C21.4668 11.3942 19.7947 13.0661 17.7333 13.0661C17.0532 13.0661 16.4232 12.8709 15.8735 12.5523L16.8031 10.9423C17.0784 11.1019 17.3931 11.1993 17.7327 11.1993C17.9812 11.2046 18.2282 11.1603 18.4593 11.0689C18.6904 10.9775 18.9009 10.8409 19.0785 10.667C19.2561 10.4932 19.3973 10.2857 19.4936 10.0566C19.59 9.82752 19.6396 9.58151 19.6397 9.333C19.6397 9.08448 19.5901 8.83846 19.4938 8.60935C19.3975 8.38025 19.2565 8.17267 19.0789 7.99879C18.9014 7.82491 18.6909 7.68822 18.4598 7.59675C18.2288 7.50528 17.9818 7.46086 17.7333 7.46609C17.3934 7.46609 17.0784 7.56493 16.804 7.72341L15.8735 6.11369Z" fill="#C3996B"/>
<path d="M17.7336 7.4668C17.5384 7.4668 17.3505 7.49704 17.1736 7.55276C17.5525 7.67204 17.8834 7.90902 18.1184 8.22927C18.3534 8.54951 18.4802 8.93634 18.4803 9.33356C18.4803 9.73082 18.3535 10.1177 18.1185 10.438C17.8835 10.7583 17.5525 10.9953 17.1736 11.1146C17.4532 11.2026 17.7496 11.2235 18.0388 11.1756C18.328 11.1277 18.6019 11.0124 18.8382 10.8389C19.0745 10.6655 19.2667 10.4388 19.3991 10.1773C19.5315 9.91575 19.6005 9.6267 19.6003 9.33356C19.6002 8.83851 19.4035 8.36378 19.0534 8.01372C18.7034 7.66367 18.2286 7.46695 17.7336 7.4668Z" fill="#D7CCC8"/>
<path d="M21.4669 16.7998H19.6001V17.9198H21.4669C21.6647 17.9201 21.8544 17.9988 21.9944 18.1388C22.1343 18.2787 22.213 18.4684 22.2133 18.6663V20.533H23.3333V18.6663C23.3333 18.1713 23.1367 17.6965 22.7867 17.3465C22.4366 16.9965 21.9619 16.7998 21.4669 16.7998Z" fill="#C0EBC5"/>
</svg>
